<svg width="124" height="116" viewBox="0 0 124 116" fill="none" xmlns="http://www.w3.org/2000/svg">
<path d="M65.0602 86.6779V115.571H36.1158C33.6399 115.571 31.2241 115.322 28.8926 114.848C14.7393 111.975 3.59553 100.831 0.722317 86.6779C0.248799 84.3464 0 81.9307 0 79.4548V57.7853H36.1158V86.6779H65.0602Z" fill="#2BEBA9"/>
<path d="M36.7759 28.8926H0V-5.72205e-05H36.7759V28.8926Z" fill="#2BEBA9"/>
<path d="M123.544 29.1074V58H94.6518V29.1074H51.3774V0.214729H94.6518C110.607 0.214729 123.544 13.1522 123.544 29.1074Z" fill="#2BEBA9"/>
<path d="M123.545 86.6779V115.571H94.6519V86.6779H65.7593V57.7853H94.7322C110.643 57.7853 123.545 70.7228 123.545 86.6779Z" fill="#2BEBA9"/>
</svg>
